#!OML:ASF F:\VICON\USERDATA\INSTALL\rory3\rory3.ASF
:FULLY-SPECIFIED
:DEGREES
82
root 0.2700501817815762 17.83292714974533 41.19630022113183 -4.999526171989877 -4.880801678647889 -0.8316898952594354
lfemur -14.070958325878767 -1.2409238283720265 -22.85796450900967
ltibia 33.04023128449833
lfoot -5.215239264052481 -2.7533474573299492
ltoes -3.5265421386577063
rfemur -11.996970913851952 0.028760735655804837 22.641151760384844
rtibia 50.41614115667069
rfoot -2.915401962922111 -4.82919147639351
rtoes 4.737615148687874
lowerback 10.351242072462423 1.185735883117316 0.8941542156372452
upperback 0.3574492142910508 2.390936146491198 0.8592553356031036
thorax -5.173675599511957 0.9058919108653808 -0.07052486259242274
lowerneck -16.447220907427237 -2.9111559750562597 -2.1080998380042324
upperneck 20.75219473132194 -3.487648953840663 1.326091542448898
head 9.149185942503603 -1.7678250118610295 0.4136494591282771
lclavicle -4.536376240336637e-16 -7.766933327343375e-16
lhumerus -36.94960834816994 10.718639956920509 78.31194921482778
lradius 25.914051085957063
lwrist 4.638055123906125
lhand -27.761702054480427 21.9614507853623
lfingers 7.12502
lthumb -0.8306742310580828 52.96926448202881
rclavicle -4.535503319743906e-16 -7.766258647738872e-16
rhumerus -25.982255108525596 -16.718273736620123 -81.63794477340346
rradius 29.02690940713583
rwrist 3.0293461813312987
rhand -18.014177823748597 23.00834680387471
rfingers 7.12502
rthumb 7.902011369238997 -7.486110984896286
83
root 0.27437907279724516 17.840541400188194 41.93305601090885 -5.053330116633587 -4.0833867009877265 -0.40243024034341546
lfemur -11.124099477733719 -1.8217094333350838 -23.81651581680536
ltibia 32.48254930243009
lfoot -5.9100548910266735 -3.3464182604680386
ltoes -3.3949777798033844
rfemur -15.807705679052711 -0.2663566724312898 21.794924780330867
rtibia 49.54027218926774
rfoot -3.409399679131048 -5.359916270466663
rtoes 3.6379086049803537
lowerback 10.422526025220877 0.9694854451156805 0.4580991397959453
upperback 0.4062589861080646 2.000417046748882 0.8076076671186744
thorax -5.165507697835181 0.7860326769266517 0.286413071800414
lowerneck -16.42161423741374 -2.894810579990648 -2.0941841439808675
upperneck 20.727684879889033 -3.496151524106973 1.2963853168612642
head 9.141405855667369 -1.7728747335225759 0.40545611752871924
lclavicle -4.53637624033664e-16 -7.766933327343377e-16
lhumerus -35.35958940707608 9.101884134513437 78.80351626112397
lradius 26.211242153937345
lwrist 5.2860483204564455
lhand -27.81384993916096 21.749977255486268
lfingers 7.12502
lthumb -0.8564187860411617 52.90467024369382
rclavicle -4.535503319743906e-16 -7.766258647738872e-16
rhumerus -26.97301142619449 -17.446120385330197 -81.3330563785235
rradius 28.795487477063535
rwrist 3.2703939338702868
rhand -17.99055574929548 23.06920149723003
rfingers 7.12502
rthumb 7.892513049289894 -7.520877723225233
84
root 0.26728955568084556 17.832303682221237 42.65239932130099 -4.949725637170545 -3.2531589377652783 0.03706239078907725
lfemur -8.540470231833423 -2.5472294089766216 -24.538140471517
ltibia 32.165321094350915
lfoot -6.402863110531092 -3.5044669193521774
ltoes -3.051415868473536
rfemur -19.075553678755494 -0.22690161590439262 21.023186502141705
rtibia 48.70675862706729
rfoot -2.9663414297691117 -5.248548348463394
rtoes 2.6850469074234278
lowerback 10.414865970239301 0.7239253337814237 -0.07050483562332066
upperback 0.4553659042683831 1.6228900032174156 0.8099025864398505
thorax -5.164171820098704 0.6399897368982477 0.5417089043881237
lowerneck -16.39016256003857 -2.8738589428556964 -2.0718318616266598
upperneck 20.71132422605575 -3.5053915003721197 1.3152027902263381
head 9.143279693329168 -1.7726455288513556 0.4121070352693842
lclavicle -4.536376240336639e-16 -7.766933327343376e-16
lhumerus -33.47284433765884 7.370513813148277 79.25672993060817
lradius 26.29962058683583
lwrist 5.839889910628807
lhand -27.656142161096827 22.18924471985651
lfingers 7.12502
lthumb -0.8499759941182328 52.90860545686331
rclavicle -4.535503319743904e-16 -7.766258647738871e-16
rhumerus -28.012024130362374 -17.709584775347917 -81.06427938908108
rradius 28.426231222400844
rwrist 3.6247667688264475
rhand -18.011176017107367 23.032279974900533
rfingers 7.12502
rthumb 7.905687175113743 -7.529980710227718
85
root 0.24737390611022328 17.814445923105364 43.21504852309396 -4.673128735262759 -2.4984090538456702 0.500555197149152
lfemur -5.968024428121229 -3.066933578735372 -25.352145684292015
ltibia 31.711241934512024
lfoot -6.5116074741334895 -3.3111892464031474
ltoes -3.069874306828448
rfemur -21.434538897839815 0.17086343733601206 20.46376390245352
rtibia 47.638300577792684
rfoot -3.3930120691723626 -5.494106820859128
rtoes 2.6080721554599764
lowerback 10.373686777007071 0.4889019316077979 -0.5864095619162155
upperback 0.49968379432921106 1.2800969963703497 0.8381108386761199
thorax -5.123735005131209 0.5128150062762634 0.8423235833514577
lowerneck -16.377274707156133 -2.8617565073132956 -2.070521009869356
upperneck 20.704707473356667 -3.5205835799942737 1.344378374773028
head 9.144851757101236 -1.7738478097216208 0.4187035705306107
lclavicle -4.536376240336638e-16 -7.766933327343375e-16
lhumerus -31.54394202390171 5.438673690066691 79.58255456295771
lradius 26.251200086904632
lwrist 6.185956385286349
lhand -27.822438569990215 21.7235606466507
lfingers 7.12502
lthumb -0.8809200175424359 52.818662193508494
rclavicle -4.535503319743903e-16 -7.76625864773887e-16
rhumerus -28.947689481307552 -17.524972898525988 -80.84290211632572
rradius 27.997659804480826
rwrist 3.9424963146315473
rhand -18.032767506582477 22.96723973892362
rfingers 7.12502
rthumb 7.960076261954277 -7.443906347921768
